<svg width="35" height="36" viewBox="0 0 35 36" fill="none" xmlns="http://www.w3.org/2000/svg">
<path d="M13.7265 18.7071C13.336 18.3166 13.336 17.6834 13.7265 17.2929L20.0904 10.9289C20.481 10.5384 21.1141 10.5384 21.5047 10.9289C21.8952 11.3195 21.8952 11.9526 21.5047 12.3431L15.8478 18L21.5047 23.6569C21.8952 24.0474 21.8952 24.6805 21.5047 25.0711C21.1141 25.4616 20.481 25.4616 20.0904 25.0711L13.7265 18.7071ZM15.4336 18V19H14.4336V18V17H15.4336V18Z" fill="white"/>
<path d="M18.4326 0C8.49148 0 0.432602 8.05887 0.432602 18C0.432602 27.9411 8.49148 36 18.4326 36C25.0567 36 30.8444 32.4215 33.9696 27.0925C34.2587 26.5996 33.8897 26 33.3182 26C33.0386 26 32.7822 26.1524 32.6398 26.393C29.767 31.2455 24.4804 34.5 18.4326 34.5C9.3199 34.5 1.9326 27.1127 1.9326 18C1.9326 8.8873 9.3199 1.5 18.4326 1.5C24.4804 1.50001 29.767 4.75446 32.6398 9.60698C32.7822 9.84758 33.0386 10 33.3182 10C33.8897 10 34.2587 9.40044 33.9696 8.90747C30.8444 3.57851 25.0567 5.06595e-06 18.4326 0Z" fill="#E7AF3E"/>
</svg>
