<svg width="34" height="36" viewBox="0 0 34 36" fill="none" xmlns="http://www.w3.org/2000/svg">
<path d="M20.7071 18.7071C21.0976 18.3166 21.0976 17.6834 20.7071 17.2929L14.3431 10.9289C13.9526 10.5384 13.3195 10.5384 12.9289 10.9289C12.5384 11.3195 12.5384 11.9526 12.9289 12.3431L18.5858 18L12.9289 23.6569C12.5384 24.0474 12.5384 24.6805 12.9289 25.0711C13.3195 25.4616 13.9526 25.4616 14.3431 25.0711L20.7071 18.7071ZM19 18V19H20V18V17H19V18Z" fill="white"/>
<path d="M16.001 0C25.9421 0 34.001 8.05887 34.001 18C34.001 27.9411 25.9421 36 16.001 36C9.37689 36 3.58922 32.4215 0.46402 27.0925C0.174918 26.5996 0.543875 26 1.11536 26C1.39496 26 1.65137 26.1524 1.79381 26.393C4.66657 31.2455 9.95319 34.5 16.001 34.5C25.1137 34.5 32.501 27.1127 32.501 18C32.501 8.8873 25.1137 1.5 16.001 1.5C9.95319 1.50001 4.66657 4.75446 1.79381 9.60698C1.65137 9.84758 1.39496 10 1.11536 10C0.543875 10 0.174917 9.40044 0.46402 8.90747C3.58922 3.57851 9.37689 5.06595e-06 16.001 0Z" fill="#E7AF3E"/>
</svg>
