<svg width="104" height="32" viewBox="0 0 104 32" fill="none" xmlns="http://www.w3.org/2000/svg">
<path fill-rule="evenodd" clip-rule="evenodd" d="M58 0.5C54.5 0.5 50.8552 1.31432 49.0577 1.67315C46.3666 2.2105 42.5473 3.1762 38.5221 4.79238C30.0032 8.21308 28.9399 9.67508 24.6945 9.8648C18.9602 10.1209 14.1469 10.9914 9.20821 12.6651C3.78373 14.5034 2.98966 14.7956 2.64049 15.081C2.0237 15.5851 1.73016 16.4259 1.73176 17.6841C1.73255 18.3646 1.53713 20.2216 1.29723 21.8104C0.773171 25.2836 0.825817 25.491 2.41375 26.2071C3.59888 26.7413 6.71572 27.5695 8.34055 27.7818C9.30273 27.9075 9.36295 27.8912 9.21838 27.5436C8.62392 26.1151 8.42251 24.8368 8.41673 22.4566C8.41075 19.9987 8.43388 19.8551 9.03312 18.6093C10.4835 15.595 13.1692 14.2481 17.783 14.2215C20.4795 14.206 21.3805 14.4511 22.7684 15.5775C24.9243 17.3272 26.453 21.9086 26.4564 26.6301L26.4576 28.2504L32.9884 28.2506C36.5802 28.2506 47.9192 28.3093 58.1858 28.3808L76.8524 28.5112L76.6658 27.2515C76.4209 25.5964 76.6047 21.7731 76.9988 20.3298C78.3 15.5645 81.7104 13.4141 86.9364 14.0638C92.0891 14.7045 94.7924 18.2644 94.6328 24.1993C94.587 25.9068 94.6254 26.1705 94.9563 26.4088C95.5152 26.8112 96.6038 26.7297 97.9477 26.1845C98.6057 25.9174 99.5269 25.6986 99.9947 25.6982C100.74 25.6974 100.894 25.618 101.24 25.0589C101.458 24.7077 101.636 24.288 101.637 24.126C101.637 23.964 101.952 23.2178 102.335 22.4678C103.132 20.9105 103.166 20.6674 102.684 19.9963C102.415 19.6225 102.335 19.1125 102.335 17.7842V16.0579L101.604 15.4274C100.772 14.709 100.52 14.0116 100.372 12.0158C100.249 10.3692 99.7143 9.18781 98.9318 8.83664C98.6329 8.7025 97.4366 8.46349 96.2734 8.30558C92.0652 7.73386 88.9292 6.9734 83.0022 5.08757C76.5144 3.0232 72.8107 2.23309 67.3376 1.74562C64.6334 1.50477 61.5 0.5 58 0.5ZM69.9299 3.01044C73.5764 3.50497 76.784 4.21555 80.2086 5.2875C81.9586 5.83526 84.8262 6.71219 86.5811 7.23618L89.7717 8.18892L87.0796 8.25236C84.7056 8.30833 84.2226 8.26257 82.9916 7.86604C74.6624 5.18243 67.5479 3.75617 61.5545 3.56861C57.5621 3.44369 55.3334 3.68095 50.0615 4.79238C43.5087 6.17366 36.8674 8.19324 33.3374 9.87776C32.3503 10.3487 31.2158 10.8344 30.8164 10.957C29.7343 11.2893 28.2802 12.3082 27.9263 12.9825C27.522 13.7523 27.5306 14.6218 27.9522 15.591C28.138 16.0184 28.9042 17.8487 29.6546 19.6579L31.019 22.9476H29.1409H27.2628L27.1414 22.4075C26.0595 17.5963 24.5777 15.1625 21.9568 13.8918C20.876 13.3678 20.3808 13.2543 18.829 13.1749C13.0613 12.8799 8.99483 15.0753 7.70801 19.1783C7.23919 20.6737 7.18196 23.5655 7.58378 25.4545L7.84561 26.6847L7.13091 26.5578C5.97669 26.3528 3.13723 25.5165 2.50907 25.1968C1.82748 24.8495 1.83007 24.892 2.30647 21.8829C2.55095 20.3378 2.78088 19.4694 2.98189 19.3297C3.14959 19.2131 4.32853 18.4108 5.6016 17.5466C6.87466 16.6824 7.96765 15.8165 8.03027 15.6223C8.16028 15.22 7.79835 14.6988 7.38915 14.6988C6.2459 14.6988 8.95495 13.6365 12.5983 12.656C16.3792 11.6387 20.0137 11.1135 25.5602 10.7832C29.3317 10.5587 31.0906 9.0299 38.5221 6.10629C41.648 4.87663 45.9776 3.89404 47.0962 3.56861C49.3775 2.90497 56.8144 1.32074 59.9592 1.74562C65.5428 2.5 67.1569 2.63433 69.9299 3.01044ZM64.189 4.7034C65.3175 4.82301 66.2757 4.95323 66.3183 4.9927C66.424 5.09031 64.5364 9.43684 64.2644 9.72182C64.0259 9.97203 47.6288 10.3933 39.3198 10.3629C35.2408 10.3479 34.7995 10.3159 35.3315 10.073C36.4835 9.54683 42.7374 7.59284 45.7011 6.83297C53.9303 4.72285 58.934 4.14641 64.189 4.7034ZM69.168 5.44442C69.2424 5.5114 69.1014 6.49418 68.8545 7.62839L68.4058 9.69059L66.9742 9.74834C66.1869 9.77996 65.5428 9.75344 65.5428 9.68922C65.5428 9.55881 67.0833 5.95035 67.3605 5.43127C67.4971 5.17575 67.7085 5.12547 68.285 5.2113C68.6962 5.27257 69.0936 5.37745 69.168 5.44442ZM72.5223 6.06348C75.1161 6.67016 75.5135 6.82649 75.5135 7.24089C75.5135 7.7099 74.4162 8.53654 73.1822 8.9975C71.8507 9.49458 69.5301 9.73144 69.5341 9.36967C69.5365 9.1391 69.6775 8.48097 70.233 6.10629C70.3587 5.56894 70.404 5.56816 72.5223 6.06348ZM79.9007 8.03239L81.9945 8.66165L80.2995 9.11789C78.6396 9.5647 76.663 9.68843 75.4453 9.42192L74.8786 9.29779L75.5135 8.83664C75.8627 8.58309 76.2741 8.07933 76.4279 7.71716C76.6823 7.11716 76.7561 7.07395 77.257 7.23088C77.5593 7.32574 78.749 7.68633 79.9007 8.03239ZM96.8509 9.39383C98.6341 9.63756 99.1157 10.0429 99.3139 11.4664C99.3857 11.9834 99.4176 12.4327 99.3845 12.4653C99.3516 12.4979 98.1174 11.7277 96.6419 10.7535C94.4125 9.28169 94.0773 9.00005 94.6573 9.08607C95.0412 9.14283 96.0283 9.28129 96.8509 9.39383ZM91.1676 9.41033L92.9623 9.62009L96.3025 11.7954C98.1395 12.9919 99.6427 14.0941 99.6427 14.2445C99.6427 14.7573 100.433 16.0447 100.822 16.1665C101.25 16.3002 101.539 17.2172 101.344 17.8229C101.243 18.1346 101.094 18.1863 100.55 18.0995C99.6882 17.9616 99.5233 18.2623 99.3992 20.198C99.3356 21.1904 99.1647 21.9263 98.8756 22.4536C98.6331 22.8957 98.4462 23.5904 98.4462 24.0498C98.4462 24.8372 98.4147 24.8766 97.4621 25.2802C95.6911 26.0305 95.7154 26.0578 95.6056 23.1931C95.4931 20.2569 95.0743 18.734 93.8792 16.9128C92.3364 14.5617 89.7145 13.2199 86.2377 13.0017C83.9109 12.8558 82.4001 13.1254 80.5617 14.0145C78.8952 14.8208 77.7921 15.9414 76.9099 17.7249C75.8809 19.8048 75.6238 21.1474 75.6182 24.4693L75.6133 27.4642L73.3641 27.4644C71.2397 27.4648 71.0465 27.4306 69.8771 26.8493C67.2113 25.524 63.9447 24.5901 59.9592 24.014C55.5214 23.3724 49.5236 23.954 39.3198 26.015C37.4553 26.3915 35.4232 26.8277 34.8043 26.984C34.0584 27.1726 32.6336 27.2684 30.5813 27.2684H27.484L27.4193 25.5711L27.3549 23.8738L29.9473 24.0003C36.8295 24.3356 46.9879 23.3092 53.9768 21.5724C59.4497 20.2123 63.1923 18.6333 68.6361 15.3876C73.4015 12.5463 76.7312 11.0583 80.5504 10.0638C83.7047 9.24221 87.6501 8.99946 91.1676 9.41033ZM74.4666 10.3752C75.0423 10.3768 75.5115 10.4444 75.5092 10.5253C75.506 10.638 72.0796 12.3292 71.0991 12.702C71.0046 12.7381 70.927 12.55 70.927 12.2843C70.927 11.4219 70.3008 11.1638 68.8677 11.4352C68.1502 11.5711 68.1083 11.5527 68.1697 11.1263C68.2311 10.6985 68.347 10.6647 70.2007 10.5345C71.2818 10.4587 72.2689 10.3532 72.3943 10.3C72.5195 10.2468 72.8015 10.2415 73.0209 10.288C73.2402 10.3346 73.8909 10.3739 74.4666 10.3752ZM67.059 11.2724C67.2723 12.11 67.0334 13.576 66.4944 14.7355C66.017 15.7627 65.8756 15.8915 64.3176 16.7198C57.3896 20.4026 45.4213 22.938 34.9281 22.9456L32.1315 22.9476L30.3914 18.7725C29.4342 16.4762 28.6511 14.3716 28.6511 14.0957C28.6511 13.4302 29.4633 12.6916 30.9444 12.0101L32.1409 11.4594L43.3081 11.3111C49.4501 11.2294 56.629 11.0882 59.2613 10.997C67.4801 10.7127 66.9112 10.6924 67.059 11.2724ZM69.6946 12.9481C69.5058 13.4817 67.9936 14.8212 67.7978 14.6285C67.7569 14.5882 67.8331 14.1516 67.9671 13.6585C68.2162 12.7411 68.6321 12.3807 69.4709 12.3553C69.8751 12.343 69.8925 12.3893 69.6946 12.9481ZM6.29376 15.8383C5.68356 16.2926 3.30274 17.9254 2.9765 18.1134C2.79204 18.2199 2.72723 18.0221 2.72723 17.3529C2.72723 16.6545 2.83871 16.3387 3.2168 15.9666C3.65132 15.5384 3.87746 15.4844 5.23766 15.4844C6.75621 15.4844 6.76518 15.4873 6.29376 15.8383ZM16.2176 16.2796C14.0602 16.6361 11.804 18.2509 10.8408 20.1281C9.28777 23.1556 9.80426 26.4158 12.2134 28.7905L13.4587 30.018H7.79376H2.12899V30.509V31H51.0853H100.042V30.509V30.018H94.6693H89.2971L90.3851 29.0044C92.4847 27.0488 93.3237 24.2328 92.5729 21.6608C90.6174 14.961 81.4467 14.2392 78.4485 20.5492C77.9003 21.703 77.825 22.0667 77.8293 23.5346C77.8365 25.8812 78.3736 27.1731 80.0143 28.7905L81.2597 30.018H51.3808H21.5017L22.6597 28.9303C27.3575 24.517 24.668 16.8839 18.1819 16.2217C17.6335 16.1657 16.7497 16.1918 16.2176 16.2796ZM20.3601 17.8271C21.6698 18.4606 22.7931 19.6025 23.4368 20.9545C24.1316 22.4138 24.1705 24.7154 23.5242 26.1246C22.1749 29.0668 18.7484 30.6363 15.626 29.7423C13.0416 29.0024 11.0305 26.3968 11.0199 23.7744C11.0115 21.7523 11.527 20.5276 12.9793 19.1172C14.5475 17.5945 15.4485 17.2479 17.6833 17.3072C19.0084 17.3423 19.5927 17.4559 20.3601 17.8271ZM88.161 17.8271C89.4742 18.4622 90.5967 19.6055 91.2322 20.9545C91.9252 22.4258 91.9672 24.7321 91.3265 26.1246C89.9719 29.0686 86.549 30.6363 83.4269 29.7423C80.8425 29.0024 78.8314 26.3968 78.8208 23.7744C78.8127 21.7602 79.3281 20.5305 80.7803 19.1007C82.3212 17.5837 83.1994 17.249 85.4843 17.3084C86.811 17.3427 87.3927 17.4555 88.161 17.8271ZM101.491 20.0393L102.066 20.7393L101.472 21.8974C101.146 22.5346 100.777 23.4292 100.652 23.8854C100.463 24.5756 100.342 24.7152 99.9341 24.7152C99.5255 24.7152 99.4433 24.6199 99.4433 24.1454C99.4433 23.8322 99.6668 23.103 99.9398 22.5251C100.289 21.7865 100.437 21.1344 100.438 20.329C100.441 19.0143 100.61 18.9675 101.491 20.0393ZM59.7893 25.0224C62.5548 25.4024 66.3084 26.3408 67.6365 26.9844L68.6337 27.4679L58.8624 27.3684C53.4882 27.3136 46.7131 27.26 43.8066 27.2492L38.5221 27.2293L41.2563 26.6694C44.4747 26.0101 49.8212 25.1716 52.3131 24.9356C55.142 24.6673 57.3945 24.6934 59.7893 25.0224Z" fill="#E7AF3E" stroke="#E7AF3E" stroke-width="0.7"/>
</svg>
