<svg width="62" height="74" viewBox="0 0 62 74" fill="none" xmlns="http://www.w3.org/2000/svg">
<path d="M41.0007 10.5C41.0007 8.52219 40.4142 6.58879 39.3154 4.9443C38.2166 3.29981 36.6548 2.01809 34.8275 1.26121C33.0003 0.504333 30.9896 0.306299 29.0498 0.692152C27.11 1.078 25.3282 2.03041 23.9296 3.42894C22.5311 4.82746 21.5787 6.60929 21.1928 8.5491C20.807 10.4889 21.005 12.4996 21.7619 14.3268C22.5188 16.1541 23.8005 17.7159 25.445 18.8147C27.0895 19.9135 29.0229 20.5 31.0007 20.5C33.6529 20.5 36.1964 19.4464 38.0718 17.5711C39.9471 15.6957 41.0007 13.1522 41.0007 10.5ZM31.0007 15.5C30.0118 15.5 29.0451 15.2068 28.2228 14.6574C27.4006 14.1079 26.7597 13.3271 26.3813 12.4134C26.0029 11.4998 25.9038 10.4945 26.0968 9.52455C26.2897 8.55465 26.7659 7.66373 27.4652 6.96447C28.1644 6.26521 29.0553 5.789 30.0252 5.59608C30.9951 5.40315 32.0005 5.50217 32.9141 5.88061C33.8277 6.25905 34.6086 6.89991 35.158 7.72215C35.7074 8.5444 36.0007 9.5111 36.0007 10.5C36.0007 11.8261 35.4739 13.0979 34.5362 14.0355C33.5985 14.9732 32.3268 15.5 31.0007 15.5ZM59.2319 39.8906L45.1163 23.8844C44.1778 22.8205 43.0236 21.9686 41.7305 21.3851C40.4374 20.8015 39.035 20.4998 37.6163 20.5H24.3851C22.9664 20.4998 21.564 20.8015 20.2708 21.3851C18.9777 21.9686 17.8236 22.8205 16.8851 23.8844L2.76944 39.8906C1.62312 41.063 0.983438 42.639 0.988309 44.2786C0.99318 45.9183 1.64222 47.4904 2.79549 48.656C3.94875 49.8216 5.51388 50.4872 7.15341 50.5095C8.79295 50.5318 10.3756 49.9088 11.5601 48.775L16.6538 44.6875L11.4851 64.3375C10.8005 65.848 10.744 67.5686 11.328 69.1207C11.912 70.6729 13.0886 71.9295 14.5991 72.6141C16.1096 73.2987 17.8302 73.3552 19.3824 72.7712C20.9345 72.1872 22.1911 71.0105 22.8757 69.5L31.0007 55.4781L39.1257 69.5C39.8409 70.9598 41.0967 72.0835 42.6266 72.6328C44.1566 73.182 45.8404 73.1135 47.3207 72.4419C48.801 71.7702 49.9614 70.5482 50.5557 69.0352C51.15 67.5221 51.1314 65.8371 50.5038 64.3375L45.3476 44.6875L50.4413 48.775C51.6258 49.9088 53.2084 50.5318 54.848 50.5095C56.4875 50.4872 58.0526 49.8216 59.2059 48.656C60.3592 47.4904 61.0082 45.9183 61.0131 44.2786C61.0179 42.639 60.3783 41.063 59.2319 39.8906ZM55.6351 45.1313C55.519 45.2475 55.3811 45.3397 55.2294 45.4026C55.0776 45.4655 54.915 45.4979 54.7507 45.4979C54.5864 45.4979 54.4238 45.4655 54.272 45.4026C54.1203 45.3397 53.9824 45.2475 53.8663 45.1313C53.8007 45.0688 53.7351 45.0063 53.6632 44.95L42.5632 36.05C42.1535 35.723 41.6515 35.533 41.1279 35.5069C40.6044 35.4809 40.086 35.62 39.6458 35.9047C39.2057 36.1893 38.8662 36.6051 38.6753 37.0933C38.4844 37.5815 38.4517 38.1173 38.5819 38.625L45.7319 65.8125C45.7687 65.9575 45.8189 66.0987 45.8819 66.2344C45.9541 66.3835 45.9959 66.5455 46.0048 66.7109C46.0138 66.8763 45.9899 67.0419 45.9343 67.1979C45.8787 67.354 45.7927 67.4974 45.6812 67.62C45.5697 67.7425 45.435 67.8416 45.2849 67.9116C45.1347 67.9816 44.9722 68.0211 44.8066 68.0277C44.6411 68.0343 44.4759 68.008 44.3207 67.9502C44.1654 67.8924 44.0232 67.8044 43.9023 67.6911C43.7814 67.5779 43.6842 67.4418 43.6163 67.2906C43.5859 67.223 43.5514 67.1573 43.5132 67.0938L33.1632 49.25C32.9434 48.8712 32.628 48.5567 32.2485 48.3381C31.869 48.1195 31.4387 48.0044 31.0007 48.0044C30.5627 48.0044 30.1324 48.1195 29.7529 48.3381C29.3734 48.5567 29.058 48.8712 28.8382 49.25L18.5007 67.0781C18.4625 67.1417 18.428 67.2074 18.3976 67.275C18.3281 67.424 18.23 67.5578 18.1089 67.6688C17.9877 67.7798 17.8458 67.8658 17.6913 67.9219C17.4589 68.0071 17.2063 68.0213 16.9658 67.9628C16.7252 67.9043 16.5074 67.7757 16.34 67.5933C16.1727 67.4108 16.0633 67.1828 16.0256 66.9381C15.988 66.6934 16.0239 66.443 16.1288 66.2188C16.1918 66.0831 16.242 65.9419 16.2788 65.7969L23.4194 38.625C23.5497 38.1173 23.517 37.5815 23.3261 37.0933C23.1352 36.6051 22.7957 36.1893 22.3556 35.9047C21.9154 35.62 21.397 35.4809 20.8734 35.5069C20.3499 35.533 19.8478 35.723 19.4382 36.05L8.33819 44.95C8.26632 45.0063 8.20069 45.0688 8.13507 45.1313C8.02026 45.2523 7.88237 45.3492 7.72954 45.4161C7.57671 45.483 7.41202 45.5187 7.2452 45.521C7.07837 45.5232 6.91277 45.4921 6.75817 45.4294C6.60356 45.3667 6.46308 45.2736 6.345 45.1557C6.22692 45.0379 6.13363 44.8976 6.07063 44.7431C6.00763 44.5886 5.9762 44.423 5.97819 44.2562C5.98017 44.0894 6.01554 43.9246 6.0822 43.7717C6.14886 43.6187 6.24546 43.4807 6.36632 43.3656C6.40382 43.3281 6.43819 43.2906 6.47257 43.25L20.6351 27.1906C21.1045 26.659 21.6816 26.2333 22.3282 25.9418C22.9747 25.6503 23.6759 25.4997 24.3851 25.5H37.6163C38.3255 25.4997 39.0267 25.6503 39.6732 25.9418C40.3198 26.2333 40.8969 26.659 41.3663 27.1906L55.5288 43.25C55.5632 43.2906 55.5976 43.3281 55.6351 43.3656C55.8688 43.6 56.0001 43.9174 56.0001 44.2484C56.0001 44.5794 55.8688 44.8969 55.6351 45.1313Z" fill="#E7AF3E"/>
</svg>
