<svg width="37" height="44" viewBox="0 0 37 44" fill="none" xmlns="http://www.w3.org/2000/svg">
<path d="M24.4357 6.35881C24.4357 5.1944 24.0904 4.05614 23.4435 3.08796C22.7966 2.11979 21.8771 1.36519 20.8013 0.919588C19.7256 0.473986 18.5418 0.357397 17.3998 0.584562C16.2577 0.811728 15.2087 1.37245 14.3853 2.19581C13.562 3.01917 13.0013 4.0682 12.7741 5.21024C12.5469 6.35228 12.6635 7.53604 13.1091 8.61181C13.5547 9.68759 14.3093 10.6071 15.2775 11.254C16.2457 11.9009 17.3839 12.2462 18.5483 12.2462C20.1098 12.2462 21.6072 11.6259 22.7113 10.5218C23.8154 9.41772 24.4357 7.92024 24.4357 6.35881ZM18.5483 9.3025C17.9661 9.3025 17.397 9.12986 16.9129 8.8064C16.4288 8.48294 16.0515 8.0232 15.8287 7.48531C15.6059 6.94743 15.5476 6.35555 15.6612 5.78453C15.7748 5.21351 16.0552 4.68899 16.4668 4.27731C16.8785 3.86563 17.403 3.58527 17.9741 3.47169C18.5451 3.35811 19.137 3.4164 19.6748 3.6392C20.2127 3.862 20.6725 4.2393 20.9959 4.72339C21.3194 5.20747 21.492 5.77661 21.492 6.35881C21.492 7.13953 21.1819 7.88827 20.6298 8.44031C20.0778 8.99236 19.3291 9.3025 18.5483 9.3025ZM35.1691 23.6622L26.8587 14.2387C26.3062 13.6124 25.6267 13.1108 24.8654 12.7673C24.1041 12.4237 23.2784 12.2461 22.4432 12.2462H14.6535C13.8183 12.2461 12.9926 12.4237 12.2313 12.7673C11.47 13.1108 10.7905 13.6124 10.2379 14.2387L1.92754 23.6622C1.25266 24.3524 0.876055 25.2802 0.878923 26.2456C0.88179 27.2109 1.2639 28.1365 1.94288 28.8227C2.62185 29.5089 3.54329 29.9008 4.50855 29.9139C5.47381 29.927 6.40556 29.5603 7.10291 28.8927L10.1018 26.4863L7.05876 38.055C6.65572 38.9443 6.62245 39.9572 6.96627 40.871C7.31009 41.7848 8.00284 42.5246 8.89212 42.9277C9.78141 43.3307 10.7944 43.364 11.7082 43.0202C12.622 42.6764 13.3618 41.9836 13.7648 41.0943L18.5483 32.8391L23.3318 41.0943C23.7529 41.9538 24.4922 42.6153 25.393 42.9387C26.2937 43.262 27.285 43.2217 28.1565 42.8263C29.0281 42.4309 29.7112 41.7114 30.0611 40.8207C30.411 39.9299 30.4 38.9378 30.0306 38.055L26.9949 26.4863L29.9938 28.8927C30.6911 29.5603 31.6229 29.927 32.5881 29.9139C33.5534 29.9008 34.4748 29.5089 35.1538 28.8227C35.8328 28.1365 36.2149 27.2109 36.2178 26.2456C36.2206 25.2802 35.844 24.3524 35.1691 23.6622ZM33.0515 26.7475C32.9832 26.816 32.902 26.8702 32.8127 26.9073C32.7233 26.9443 32.6276 26.9634 32.5309 26.9634C32.4341 26.9634 32.3384 26.9443 32.249 26.9073C32.1597 26.8702 32.0785 26.816 32.0102 26.7475C31.9716 26.7107 31.9329 26.6739 31.8906 26.6408L25.3556 21.4011C25.1144 21.2085 24.8188 21.0967 24.5106 21.0813C24.2024 21.066 23.8972 21.1479 23.6381 21.3155C23.3789 21.4831 23.179 21.7279 23.0666 22.0153C22.9543 22.3027 22.935 22.6181 23.0117 22.9171L27.2212 38.9234C27.2428 39.0087 27.2724 39.0919 27.3095 39.1717C27.352 39.2595 27.3766 39.3549 27.3818 39.4523C27.3871 39.5497 27.373 39.6471 27.3403 39.739C27.3076 39.8309 27.257 39.9153 27.1913 39.9875C27.1257 40.0596 27.0464 40.118 26.958 40.1592C26.8696 40.2004 26.7739 40.2236 26.6764 40.2275C26.579 40.2314 26.4817 40.2159 26.3903 40.1819C26.2989 40.1479 26.2152 40.096 26.144 40.0294C26.0728 39.9627 26.0156 39.8826 25.9756 39.7936C25.9577 39.7538 25.9374 39.7151 25.9149 39.6777L19.8215 29.1724C19.6921 28.9493 19.5064 28.7642 19.283 28.6355C19.0595 28.5068 18.8062 28.4391 18.5483 28.4391C18.2905 28.4391 18.0372 28.5068 17.8137 28.6355C17.5903 28.7642 17.4046 28.9493 17.2752 29.1724L11.1891 39.6685C11.1666 39.7059 11.1463 39.7446 11.1284 39.7844C11.0875 39.8721 11.0298 39.9509 10.9584 40.0162C10.8871 40.0816 10.8036 40.1322 10.7126 40.1652C10.5758 40.2154 10.4271 40.2238 10.2855 40.1893C10.1438 40.1549 10.0156 40.0792 9.91707 39.9718C9.81853 39.8644 9.75411 39.7301 9.73197 39.586C9.70983 39.442 9.73097 39.2946 9.79271 39.1625C9.8298 39.0827 9.85937 38.9995 9.88102 38.9142L14.085 22.9171C14.1616 22.6181 14.1424 22.3027 14.03 22.0153C13.9176 21.7279 13.7177 21.4831 13.4586 21.3155C13.1995 21.1479 12.8943 21.066 12.586 21.0813C12.2778 21.0967 11.9822 21.2085 11.7411 21.4011L5.20608 26.6408C5.16376 26.6739 5.12512 26.7107 5.08649 26.7475C5.01889 26.8188 4.93772 26.8758 4.84774 26.9152C4.75776 26.9546 4.6608 26.9756 4.56259 26.977C4.46437 26.9783 4.36687 26.96 4.27585 26.923C4.18483 26.8861 4.10212 26.8313 4.03261 26.7619C3.96309 26.6925 3.90816 26.6099 3.87108 26.519C3.83399 26.428 3.81548 26.3306 3.81665 26.2323C3.81782 26.1341 3.83864 26.0371 3.87789 25.9471C3.91713 25.857 3.97401 25.7758 4.04516 25.708C4.06724 25.686 4.08747 25.6639 4.10771 25.64L12.4457 16.1852C12.7221 15.8722 13.0618 15.6216 13.4425 15.45C13.8231 15.2784 14.2359 15.1897 14.6535 15.1899H22.4432C22.8607 15.1897 23.2735 15.2784 23.6542 15.45C24.0348 15.6216 24.3746 15.8722 24.651 16.1852L32.989 25.64C33.0092 25.6639 33.0294 25.686 33.0515 25.708C33.1891 25.846 33.2664 26.0329 33.2664 26.2278C33.2664 26.4227 33.1891 26.6096 33.0515 26.7475Z" fill="#E7AF3E"/>
</svg>
