<svg width="64" height="76" viewBox="0 0 64 76" fill="none" xmlns="http://www.w3.org/2000/svg">
<path d="M42.0007 11.5C42.0007 9.52219 41.4142 7.58879 40.3154 5.9443C39.2166 4.29981 37.6548 3.01809 35.8275 2.26121C34.0003 1.50433 31.9896 1.3063 30.0498 1.69215C28.11 2.078 26.3282 3.03041 24.9296 4.42894C23.5311 5.82746 22.5787 7.60929 22.1928 9.5491C21.807 11.4889 22.005 13.4996 22.7619 15.3268C23.5188 17.1541 24.8005 18.7159 26.445 19.8147C28.0895 20.9135 30.0229 21.5 32.0007 21.5C34.6529 21.5 37.1964 20.4464 39.0718 18.5711C40.9471 16.6957 42.0007 14.1522 42.0007 11.5ZM32.0007 16.5C31.0118 16.5 30.0451 16.2068 29.2228 15.6574C28.4006 15.1079 27.7597 14.3271 27.3813 13.4134C27.0029 12.4998 26.9038 11.4945 27.0968 10.5246C27.2897 9.55465 27.7659 8.66373 28.4652 7.96447C29.1644 7.26521 30.0553 6.789 31.0252 6.59608C31.9951 6.40315 33.0005 6.50217 33.9141 6.88061C34.8277 7.25905 35.6086 7.89991 36.158 8.72215C36.7074 9.5444 37.0007 10.5111 37.0007 11.5C37.0007 12.8261 36.4739 14.0979 35.5362 15.0355C34.5985 15.9732 33.3268 16.5 32.0007 16.5ZM60.2319 40.8906L46.1163 24.8844C45.1778 23.8205 44.0236 22.9686 42.7305 22.3851C41.4374 21.8015 40.035 21.4998 38.6163 21.5H25.3851C23.9664 21.4998 22.564 21.8015 21.2708 22.3851C19.9777 22.9686 18.8236 23.8205 17.8851 24.8844L3.76944 40.8906C2.62312 42.063 1.98344 43.639 1.98831 45.2786C1.99318 46.9183 2.64222 48.4904 3.79549 49.656C4.94875 50.8216 6.51388 51.4872 8.15341 51.5095C9.79295 51.5318 11.3756 50.9088 12.5601 49.775L17.6538 45.6875L12.4851 65.3375C11.8005 66.848 11.744 68.5686 12.328 70.1207C12.912 71.6729 14.0886 72.9295 15.5991 73.6141C17.1096 74.2987 18.8302 74.3552 20.3824 73.7712C21.9345 73.1872 23.1911 72.0105 23.8757 70.5L32.0007 56.4781L40.1257 70.5C40.8409 71.9598 42.0967 73.0835 43.6266 73.6328C45.1566 74.182 46.8404 74.1135 48.3207 73.4419C49.801 72.7702 50.9614 71.5482 51.5557 70.0352C52.15 68.5221 52.1314 66.8371 51.5038 65.3375L46.3476 45.6875L51.4413 49.775C52.6258 50.9088 54.2084 51.5318 55.848 51.5095C57.4875 51.4872 59.0526 50.8216 60.2059 49.656C61.3592 48.4904 62.0082 46.9183 62.0131 45.2786C62.0179 43.639 61.3783 42.063 60.2319 40.8906ZM56.6351 46.1313C56.519 46.2475 56.3811 46.3397 56.2294 46.4026C56.0776 46.4655 55.915 46.4979 55.7507 46.4979C55.5864 46.4979 55.4238 46.4655 55.272 46.4026C55.1203 46.3397 54.9824 46.2475 54.8663 46.1313C54.8007 46.0688 54.7351 46.0063 54.6632 45.95L43.5632 37.05C43.1535 36.723 42.6515 36.533 42.1279 36.5069C41.6044 36.4809 41.086 36.62 40.6458 36.9047C40.2057 37.1893 39.8662 37.6051 39.6753 38.0933C39.4844 38.5815 39.4517 39.1173 39.5819 39.625L46.7319 66.8125C46.7687 66.9575 46.8189 67.0987 46.8819 67.2344C46.9541 67.3835 46.9959 67.5455 47.0048 67.7109C47.0138 67.8763 46.9899 68.0419 46.9343 68.1979C46.8787 68.354 46.7927 68.4974 46.6812 68.62C46.5697 68.7425 46.435 68.8416 46.2849 68.9116C46.1347 68.9816 45.9722 69.0211 45.8066 69.0277C45.6411 69.0343 45.4759 69.008 45.3207 68.9502C45.1654 68.8924 45.0232 68.8044 44.9023 68.6911C44.7814 68.5779 44.6842 68.4418 44.6163 68.2906C44.5859 68.223 44.5514 68.1573 44.5132 68.0938L34.1632 50.25C33.9434 49.8712 33.628 49.5567 33.2485 49.3381C32.869 49.1195 32.4387 49.0044 32.0007 49.0044C31.5627 49.0044 31.1324 49.1195 30.7529 49.3381C30.3734 49.5567 30.058 49.8712 29.8382 50.25L19.5007 68.0781C19.4625 68.1417 19.428 68.2074 19.3976 68.275C19.3281 68.424 19.23 68.5578 19.1089 68.6688C18.9877 68.7798 18.8458 68.8658 18.6913 68.9219C18.4589 69.0071 18.2063 69.0213 17.9658 68.9628C17.7252 68.9043 17.5074 68.7757 17.34 68.5933C17.1727 68.4108 17.0633 68.1828 17.0256 67.9381C16.988 67.6934 17.0239 67.443 17.1288 67.2188C17.1918 67.0831 17.242 66.9419 17.2788 66.7969L24.4194 39.625C24.5497 39.1173 24.517 38.5815 24.3261 38.0933C24.1352 37.6051 23.7957 37.1893 23.3556 36.9047C22.9154 36.62 22.397 36.4809 21.8734 36.5069C21.3499 36.533 20.8478 36.723 20.4382 37.05L9.33819 45.95C9.26632 46.0063 9.20069 46.0688 9.13507 46.1313C9.02026 46.2523 8.88237 46.3492 8.72954 46.4161C8.57671 46.483 8.41202 46.5187 8.2452 46.521C8.07837 46.5232 7.91277 46.4921 7.75817 46.4294C7.60356 46.3667 7.46308 46.2736 7.345 46.1557C7.22692 46.0379 7.13363 45.8976 7.07063 45.7431C7.00763 45.5886 6.9762 45.423 6.97819 45.2562C6.98017 45.0894 7.01554 44.9246 7.0822 44.7717C7.14886 44.6187 7.24546 44.4807 7.36632 44.3656C7.40382 44.3281 7.43819 44.2906 7.47257 44.25L21.6351 28.1906C22.1045 27.659 22.6816 27.2333 23.3282 26.9418C23.9747 26.6503 24.6759 26.4997 25.3851 26.5H38.6163C39.3255 26.4997 40.0267 26.6503 40.6732 26.9418C41.3198 27.2333 41.8969 27.659 42.3663 28.1906L56.5288 44.25C56.5632 44.2906 56.5976 44.3281 56.6351 44.3656C56.8688 44.6 57.0001 44.9174 57.0001 45.2484C57.0001 45.5794 56.8688 45.8969 56.6351 46.1313Z" fill="#E7AF3E" stroke="#101010" stroke-width="2.2"/>
</svg>
