<svg width="52" height="81" viewBox="0 0 52 81" fill="none" xmlns="http://www.w3.org/2000/svg">
<path fill-rule="evenodd" clip-rule="evenodd" d="M18.3007 1.12045C16.5785 1.47193 14.9452 2.7988 14.1552 4.48841C13.7057 5.44949 13.6791 5.66771 13.6195 8.85949C13.5389 13.1912 13.4944 13.1019 15.7403 13.1019H17.3453V14.354V15.6061L15.9597 15.609C13.4517 15.614 11.6652 16.2805 10.1817 17.7648C8.775 19.1721 8.80968 19.0376 5.26454 36.7782C3.35707 46.3224 1.97202 53.6726 1.97345 54.2423C1.97667 55.5405 2.39056 57.4459 2.92155 58.606C3.15683 59.1203 3.924 60.5124 4.62609 61.6998C5.32836 62.8871 5.90298 63.9083 5.90298 63.9693C5.90298 64.0303 5.75674 64.0802 5.57795 64.0802C4.81668 64.0802 3.41911 64.6554 2.71452 65.2589C2.29705 65.6165 1.74496 66.3225 1.48787 66.828C0.733393 68.311 0.810092 69.2699 2.02726 73.5743C3.2287 77.8232 3.68014 78.6297 5.34302 79.4989L6.30132 79.9997H25.8354C47.1038 79.9997 46.1047 80.046 47.4823 78.9948C48.4801 78.2335 48.9508 77.2093 49.9985 73.5196C51.1803 69.3581 51.2598 68.3699 50.5322 66.882C50.2622 66.3298 49.7241 65.6065 49.3363 65.2743C48.632 64.6713 47.173 64.0802 46.3885 64.0802C46.0041 64.0802 46.0804 63.8988 47.4142 61.6427C48.2067 60.3021 49.0372 58.7525 49.2599 58.1994C49.807 56.84 50.129 54.7757 49.9883 53.5309C49.9249 52.9701 48.4325 45.2855 46.672 36.4539C43.2204 19.1401 43.2517 19.2601 41.8142 17.7868C40.3505 16.2866 38.5614 15.6061 36.0802 15.6061H34.6875V14.354V13.1019H36.2924C38.5425 13.1019 38.5058 13.174 38.3976 8.94463C38.2943 4.90304 38.1327 4.35748 36.5789 2.80273C34.7912 1.01438 34.9678 1.04551 26.3739 1.00401C22.3423 0.98469 18.7094 1.0371 18.3007 1.12045ZM34.2405 3.38085C35.074 3.82963 35.5896 4.35855 36.0446 5.23162C36.305 5.73139 36.3852 6.39017 36.4426 8.49602L36.5143 11.1344H26.0359H15.5574L15.5585 8.85376C15.559 7.59934 15.6402 6.28195 15.7391 5.926C15.9604 5.12913 16.5692 4.21331 17.1768 3.76309C18.2857 2.94172 18.6236 2.91185 26.2846 2.95495C33.3158 2.99448 33.5461 3.00683 34.2405 3.38085ZM21.2786 14.354V15.6061H20.2952H19.3119V14.354V13.1019H20.2952H21.2786V14.354ZM28.7511 14.3988L28.8038 15.6061H26.0246H23.2452V14.3494V13.0926L25.9717 13.142L28.6982 13.1914L28.7511 14.3988ZM32.6844 14.3988L32.7371 15.6061H31.7457H30.7542V14.3447V13.0832L31.6928 13.1374L32.6314 13.1914L32.6844 14.3988ZM38.4652 17.842C38.723 18.0003 38.5586 18.562 37.0349 22.7274L35.3132 27.4336L26.0031 27.4674L16.6931 27.5011L14.9728 22.7662C14.0266 20.162 13.2845 17.9994 13.3233 17.9606C13.616 17.6678 16.0115 17.6079 26.3739 17.6336C33.874 17.6524 38.28 17.7283 38.4652 17.842ZM13.3982 24.1444L15.0423 28.6582L14.5024 29.3316C13.3653 30.7503 13.412 29.9582 13.412 47.8255V64.0802H10.8589H8.30604L6.50406 60.9947C4.50917 57.5788 4.15321 56.7073 4.00106 54.8683C3.90738 53.7346 4.20505 52.0785 7.14697 37.3662C8.93411 28.4287 10.4876 20.9027 10.5991 20.6417C10.9876 19.7338 11.4875 19.1233 11.6261 19.3871C11.6965 19.5211 12.4939 21.6618 13.3982 24.1444ZM41.3083 20.5251C41.486 20.9186 43.1001 28.6006 44.8954 37.5964L48.1593 53.9521L47.955 55.3549C47.7015 57.0958 47.4188 57.7392 45.361 61.2605L43.7162 64.0754L41.172 64.0777L38.6279 64.0802L38.5796 47.5793L38.5314 31.0785L38.1125 30.2736C37.8822 29.8309 37.5305 29.2921 37.331 29.0764L36.9684 28.6839L38.3535 24.8729C40.6739 18.4879 40.4186 19.0709 40.7213 19.4656C40.8665 19.6549 41.1306 20.1316 41.3083 20.5251ZM34.5166 29.5574C35.2355 29.7572 36.1821 30.6542 36.4644 31.4031C36.593 31.7446 36.6541 37.0848 36.6541 47.9934V64.0802H26.0164H15.3786V47.872V31.6637L15.77 30.967C16.1807 30.236 16.7342 29.7849 17.5087 29.5502C18.197 29.3415 33.7633 29.3479 34.5166 29.5574ZM18.0604 38.2315V39.2171H26.0257H33.9911L33.9369 38.278L33.8829 37.339L25.9717 37.2925L18.0604 37.2458V38.2315ZM18.0958 44.9857L18.1498 45.9248H26.0164H33.8829L33.9369 44.9857L33.9911 44.0466H26.0164H18.0416L18.0958 44.9857ZM18.1814 50.7822C18.1149 50.8489 18.0604 51.2923 18.0604 51.768V52.6324H26.0257H33.9911L33.9369 51.6934L33.8829 50.7543L26.0927 50.7078C21.8081 50.682 18.248 50.7157 18.1814 50.7822ZM18.0604 58.444V59.4295H26.0257H33.9911L33.9369 58.4905L33.8829 57.5514L25.9717 57.5049L18.0604 57.4582V58.444ZM47.2613 66.2917C48.4779 66.8005 49.3025 68.3742 49.0077 69.6252C48.3388 72.4626 47.1018 76.4178 46.728 76.9144C45.8301 78.1069 47.2179 78.0321 25.9624 78.0321H6.67105L6.07998 77.6297C5.75495 77.4082 5.34303 77.026 5.16478 76.78C4.98671 76.5341 4.39331 74.723 3.84641 72.7554C3.08174 70.0039 2.87828 69.0199 2.96535 68.4928C3.09694 67.6978 3.95046 66.6402 4.73748 66.2971C5.55149 65.9422 46.413 65.937 47.2613 66.2917Z" fill="#E7AF3E" stroke="#E7AF3E" stroke-width="0.7"/>
</svg>
