<svg width="43" height="43" viewBox="0 0 43 43" fill="none" xmlns="http://www.w3.org/2000/svg">
<path d="M11.3346 1.875C12.4805 1.875 17.0638 12.1875 17.0638 13.3333C17.0638 15.625 13.6263 17.9167 12.4805 20.2083C11.3346 22.5 13.6263 24.7917 15.918 27.0833C16.8117 27.9771 20.5013 31.6667 22.793 30.5208C25.0846 29.375 27.3763 25.9375 29.668 25.9375C30.8138 25.9375 41.1263 30.5208 41.1263 31.6667C41.1263 36.25 37.6888 39.6875 34.2513 40.8333C30.8138 41.9792 28.5221 41.9792 23.9388 40.8333C19.3555 39.6875 15.918 38.5417 10.1888 32.8125C4.45964 27.0833 3.3138 23.6458 2.16797 19.0625C1.02214 14.4792 1.02214 12.1875 2.16797 8.75C3.3138 5.3125 6.7513 1.875 11.3346 1.875Z" stroke="#E7AF3E" stroke-width="2" stroke-linecap="round" stroke-linejoin="round"/>
<path d="M25.0859 11.1333C26.5984 11.8437 27.9734 12.8062 29.1193 13.975C30.2422 15.0979 31.1818 16.45 31.8693 17.9166" stroke="#E7AF3E" stroke-width="2" stroke-linecap="round" stroke-linejoin="round"/>
<path d="M27.375 2.44788C30.6063 3.29579 33.4938 4.96871 35.7854 7.26038C38.0542 9.55204 39.7271 12.4166 40.5521 15.625" stroke="#E7AF3E" stroke-width="2" stroke-linecap="round" stroke-linejoin="round"/>
</svg>
