<svg width="60" height="61" viewBox="0 0 60 61" fill="none" xmlns="http://www.w3.org/2000/svg">
<path d="M30 7.91675C30.5967 7.91675 31.1689 8.15397 31.5908 8.57593C32.0128 8.99788 32.25 9.57001 32.25 10.1667C32.25 10.7635 32.0128 11.3356 31.5908 11.7576C31.1689 12.1795 30.5967 12.4167 30 12.4167L29.7773 12.406C29.2624 12.3548 28.7783 12.1267 28.4092 11.7576C27.9872 11.3356 27.75 10.7635 27.75 10.1667C27.75 9.57001 27.9872 8.99788 28.4092 8.57593C28.7783 8.20677 29.2624 7.97868 29.7773 7.92749L30 7.91675Z" fill="#E7AF3E" stroke="#101010" stroke-width="0.5"/>
<path d="M30.2559 1.27246L30.2598 1.27441L30.2773 1.27832L30.3135 1.2832V1.28418L30.4521 1.30957V1.30859C30.8421 1.38596 31.2313 1.46696 31.6201 1.5498L32.7881 1.80664V1.80762C34.6542 2.22896 36.5048 2.71718 38.335 3.27441V3.27539C40.0933 3.81788 41.9124 4.4733 43.4199 5.22656L44.0459 5.55566C44.748 5.94413 45.4144 6.38597 45.9521 6.88965L46.1748 7.10938V7.11035C46.7429 7.70086 47.25 8.50343 47.25 9.49512C47.25 12.1753 46.5463 14.1757 45.7637 15.5625L45.6064 15.832L45.6055 15.833C45.2734 16.3883 44.8826 16.9066 44.4404 17.3789L44.3809 17.4434L44.374 17.5312C44.3604 17.7132 44.3321 17.9168 44.2891 18.1426C44.128 18.9828 43.7241 20.0556 42.793 21.1025L42.707 21.1992L42.7363 21.3252C43.188 23.2455 43.1999 25.2435 42.7705 27.1689C42.3411 29.0943 41.4817 30.8979 40.2568 32.4443C39.0319 33.9907 37.4732 35.2407 35.6973 36.0996C33.9213 36.9585 31.9737 37.4043 30.001 37.4043C28.0282 37.4043 26.0807 36.9585 24.3047 36.0996C22.5287 35.2407 20.97 33.9908 19.7451 32.4443C18.5202 30.8979 17.6609 29.0944 17.2314 27.1689C16.802 25.2435 16.813 23.2455 17.2646 21.3252L17.2949 21.1992L17.208 21.1016C16.3922 20.1857 15.9812 19.2493 15.7832 18.4678L15.7109 18.1426C15.6679 17.9156 15.6396 17.712 15.626 17.5312L15.6191 17.4424L15.5586 17.3779L15.2959 17.0859C15.0655 16.8169 14.8088 16.4835 14.5498 16.082L14.3936 15.832C13.5519 14.4395 12.75 12.3539 12.75 9.49512C12.75 8.62735 13.1386 7.90459 13.6162 7.3418L13.8252 7.11035V7.10938C14.3244 6.5878 14.9661 6.1296 15.6562 5.72559L15.9541 5.55566C17.365 4.77468 19.1411 4.08908 20.9082 3.51465L21.6641 3.27539C23.1829 2.80606 24.6978 2.40724 25.9951 2.09277L27.2119 1.80664C27.5884 1.72103 27.9344 1.64592 28.2412 1.58008L29.0361 1.41309L29.5527 1.31055L29.5518 1.30957L29.6895 1.28418L29.6885 1.2832L29.7227 1.27832L29.7402 1.27441L29.7432 1.27246L30 1.22559L30.2559 1.27246ZM39.8545 23.2158C39.7026 23.288 39.5456 23.3578 39.3838 23.4258L38.8828 23.624H38.8818C36.7632 24.4187 33.8885 24.917 30 24.917C25.4841 24.917 22.3304 24.2411 20.1445 23.2168L19.8203 23.0654L19.7891 23.4219C19.7629 23.7224 19.75 24.0261 19.75 24.333C19.75 27.0514 20.8298 29.6588 22.752 31.5811C24.6742 33.5033 27.2815 34.583 30 34.583C32.7185 34.583 35.3258 33.5033 37.248 31.5811C39.1702 29.6588 40.25 27.0514 40.25 24.333C40.25 24.026 40.2371 23.7215 40.2109 23.4199L40.1797 23.0615L39.8545 23.2158ZM18.8877 18.627C18.9741 18.7743 19.0786 18.9227 19.2002 19.0723L19.3281 19.2227L19.3291 19.2236C19.7701 19.7158 20.475 20.2732 21.6016 20.7646L22.1104 20.9707C23.7998 21.6042 26.3017 22.083 30 22.083C33.467 22.083 35.8824 21.6625 37.5615 21.0879L37.8877 20.9707C39.1393 20.5008 39.9477 19.9462 40.4658 19.4375L40.6699 19.2227H40.6709C40.8491 19.0212 40.997 18.8223 41.1123 18.627L41.334 18.25H18.667L18.8877 18.627ZM44.417 9.47949L44.3965 9.43164C44.374 9.37914 44.3293 9.29958 44.2393 9.19043L44.1328 9.07129L44.1318 9.06934L44.0117 8.95312C43.7122 8.67502 43.2695 8.36342 42.6719 8.03418H42.6729C41.4863 7.37717 39.9065 6.76007 38.2246 6.21289L37.499 5.98242C36.049 5.53424 34.5941 5.1514 33.3398 4.84766L32.1602 4.57129C31.7952 4.48861 31.4606 4.41474 31.1641 4.35059L30.3965 4.18848H30.3945L30.0488 4.12012L30 4.11035L29.9512 4.12012C29.5982 4.19072 29.2456 4.26362 28.8936 4.33887L27.8398 4.57129C26.4931 4.87459 25.155 5.21492 23.8271 5.5918L22.502 5.98047L22.501 5.98145C20.7962 6.50927 19.1521 7.11082 17.8594 7.75586L17.3271 8.03418C16.6495 8.40748 16.171 8.75792 15.876 9.06348C15.7708 9.16523 15.6825 9.28319 15.6133 9.41211L15.583 9.46777V9.54004H15.5781V9.54492H15.583C15.5924 11.8194 16.2253 13.3875 16.8174 14.3662V14.3652C17.023 14.7091 17.2603 15.0334 17.5264 15.333L17.6006 15.417H42.3994L42.4736 15.332C42.7388 15.0327 42.9757 14.7096 43.1807 14.3662C43.7757 13.3853 44.4102 11.8123 44.417 9.53027V9.47949Z" fill="#E7AF3E" stroke="#101010" stroke-width="0.5"/>
<path d="M45.001 48.0093C45.5684 48.529 46.326 49.0308 46.9561 49.4087C47.3073 49.6193 47.6234 49.7947 47.8516 49.9175C47.9224 49.9556 47.9856 49.9876 48.0381 50.0151C48.0029 50.1334 47.9516 50.3011 47.8828 50.5015C47.7422 50.9113 47.5329 51.4555 47.2588 51.9976C46.9835 52.5418 46.6488 53.0719 46.2607 53.4624C45.8725 53.853 45.4522 54.0835 45.001 54.0835C44.5499 54.0834 44.1303 53.8529 43.7422 53.4624C43.3541 53.0719 43.0194 52.5418 42.7441 51.9976C42.47 51.4555 42.2607 50.9114 42.1201 50.5015C42.0513 50.3009 41.999 50.1334 41.9639 50.0151C42.0165 49.9876 42.0803 49.9557 42.1514 49.9175C42.3795 49.7947 42.695 49.6192 43.0459 49.4087C43.6759 49.0309 44.4336 48.5289 45.001 48.0093Z" fill="#E7AF3E" stroke="#101010" stroke-width="0.5"/>
<mask id="path-4-inside-1_391_297" fill="white">
<path fill-rule="evenodd" clip-rule="evenodd" d="M24.1667 42.6666C24.1667 41.7825 24.5179 40.9347 25.143 40.3096C25.7681 39.6844 26.6159 39.3333 27.5 39.3333H32.5C33.3841 39.3333 34.2319 39.6844 34.857 40.3096C35.4821 40.9347 35.8333 41.7825 35.8333 42.6666V44.9699C35.8333 45.5126 35.7007 46.0471 35.4471 46.5269C35.1936 47.0068 34.8267 47.4174 34.3783 47.7233L34.5667 48.6666L40.2867 41.7216C40.4794 41.4873 40.7325 41.3101 41.0186 41.2091C41.3046 41.1081 41.6129 41.087 41.91 41.1483C46.1833 42.0349 50.555 43.3783 53.9017 45.2216C57.1383 47.0049 60 49.5933 60 53.1633V59.3333C60 59.7753 59.8244 60.1992 59.5118 60.5118C59.1993 60.8243 58.7754 60.9999 58.3333 60.9999H1.66667C1.22464 60.9999 0.800716 60.8243 0.488156 60.5118C0.175595 60.1992 0 59.7753 0 59.3333V53.1633C0 49.6133 2.91667 47.0416 6.15333 45.2733C9.51333 43.4349 13.8867 42.0816 18.1083 41.1833C18.4068 41.1199 18.717 41.1397 19.005 41.2405C19.293 41.3413 19.5478 41.5192 19.7417 41.7549L25.4583 48.6983L25.6383 47.7349C25.185 47.4297 24.8137 47.0178 24.5571 46.5353C24.3005 46.0529 24.1664 45.5147 24.1667 44.9683V42.6666ZM30.8667 47.1599L31.8317 51.9882L30 54.2116L28.2267 52.0582L29.1383 47.1366C29.2044 46.781 29.1529 46.4135 28.9918 46.0897C28.8306 45.7659 28.5685 45.5033 28.245 45.3416L27.5 44.9699V42.6666H32.5V44.9699L31.755 45.3433C31.428 45.5066 31.1637 45.7728 31.0029 46.1011C30.842 46.4294 30.7936 46.8014 30.865 47.1599M31.4717 57.6666L42.2117 44.6249C45.9783 45.4683 49.59 46.6533 52.2917 48.1416C55.34 49.8199 56.6667 51.5549 56.6667 53.1633V57.6666H31.4717ZM17.815 44.6616L28.5267 57.6666H3.33333V53.1633C3.33333 51.6066 4.66667 49.8849 7.75167 48.1966C10.4733 46.7083 14.0917 45.5166 17.8183 44.6616"/>
</mask>
<path fill-rule="evenodd" clip-rule="evenodd" d="M24.1667 42.6666C24.1667 41.7825 24.5179 40.9347 25.143 40.3096C25.7681 39.6844 26.6159 39.3333 27.5 39.3333H32.5C33.3841 39.3333 34.2319 39.6844 34.857 40.3096C35.4821 40.9347 35.8333 41.7825 35.8333 42.6666V44.9699C35.8333 45.5126 35.7007 46.0471 35.4471 46.5269C35.1936 47.0068 34.8267 47.4174 34.3783 47.7233L34.5667 48.6666L40.2867 41.7216C40.4794 41.4873 40.7325 41.3101 41.0186 41.2091C41.3046 41.1081 41.6129 41.087 41.91 41.1483C46.1833 42.0349 50.555 43.3783 53.9017 45.2216C57.1383 47.0049 60 49.5933 60 53.1633V59.3333C60 59.7753 59.8244 60.1992 59.5118 60.5118C59.1993 60.8243 58.7754 60.9999 58.3333 60.9999H1.66667C1.22464 60.9999 0.800716 60.8243 0.488156 60.5118C0.175595 60.1992 0 59.7753 0 59.3333V53.1633C0 49.6133 2.91667 47.0416 6.15333 45.2733C9.51333 43.4349 13.8867 42.0816 18.1083 41.1833C18.4068 41.1199 18.717 41.1397 19.005 41.2405C19.293 41.3413 19.5478 41.5192 19.7417 41.7549L25.4583 48.6983L25.6383 47.7349C25.185 47.4297 24.8137 47.0178 24.5571 46.5353C24.3005 46.0529 24.1664 45.5147 24.1667 44.9683V42.6666ZM30.8667 47.1599L31.8317 51.9882L30 54.2116L28.2267 52.0582L29.1383 47.1366C29.2044 46.781 29.1529 46.4135 28.9918 46.0897C28.8306 45.7659 28.5685 45.5033 28.245 45.3416L27.5 44.9699V42.6666H32.5V44.9699L31.755 45.3433C31.428 45.5066 31.1637 45.7728 31.0029 46.1011C30.842 46.4294 30.7936 46.8014 30.865 47.1599M31.4717 57.6666L42.2117 44.6249C45.9783 45.4683 49.59 46.6533 52.2917 48.1416C55.34 49.8199 56.6667 51.5549 56.6667 53.1633V57.6666H31.4717ZM17.815 44.6616L28.5267 57.6666H3.33333V53.1633C3.33333 51.6066 4.66667 49.8849 7.75167 48.1966C10.4733 46.7083 14.0917 45.5166 17.8183 44.6616" fill="#E7AF3E"/>
<path d="M35.8333 44.9699L36.3333 44.97V44.9699H35.8333ZM34.3783 47.7233L34.0966 47.3102L33.8232 47.4967L33.888 47.8211L34.3783 47.7233ZM34.5667 48.6666L34.0763 48.7645L34.2827 49.7979L34.9526 48.9845L34.5667 48.6666ZM40.2867 41.7216L40.6726 42.0395L40.6728 42.0393L40.2867 41.7216ZM41.91 41.1483L42.0116 40.6587L42.0109 40.6585L41.91 41.1483ZM53.9017 45.2216L54.143 44.7837L54.1429 44.7836L53.9017 45.2216ZM6.15333 45.2733L6.39306 45.712L6.39332 45.7119L6.15333 45.2733ZM18.1083 41.1833L18.0045 40.6942L18.0043 40.6942L18.1083 41.1833ZM19.7417 41.7549L19.3555 42.0725L19.3557 42.0727L19.7417 41.7549ZM25.4583 48.6983L25.0723 49.0161L25.7531 49.8429L25.9498 48.7901L25.4583 48.6983ZM25.6383 47.7349L26.1298 47.8268L26.1902 47.5037L25.9176 47.3202L25.6383 47.7349ZM24.1667 44.9683L24.6667 44.9685V44.9683H24.1667ZM31.8317 51.9882L32.2176 52.3062L32.3685 52.123L32.322 51.8903L31.8317 51.9882ZM30 54.2116L29.614 54.5294L29.9999 54.998L30.3859 54.5295L30 54.2116ZM28.2267 52.0582L27.735 51.9672L27.6926 52.1963L27.8407 52.3761L28.2267 52.0582ZM29.1383 47.1366L28.6467 47.0453L28.6467 47.0455L29.1383 47.1366ZM28.245 45.3416L28.4686 44.8944L28.4682 44.8942L28.245 45.3416ZM27.5 44.9699H27V45.2792L27.2768 45.4173L27.5 44.9699ZM27.5 42.6666V42.1666H27V42.6666H27.5ZM32.5 42.6666H33V42.1666H32.5V42.6666ZM32.5 44.9699L32.724 45.4169L33 45.2786V44.9699H32.5ZM31.755 45.3433L31.9784 45.7906L31.979 45.7903L31.755 45.3433ZM31.4717 57.6666L31.0857 57.3487L30.4122 58.1666H31.4717V57.6666ZM42.2117 44.6249L42.3209 44.137L42.021 44.0699L41.8257 44.3071L42.2117 44.6249ZM52.2917 48.1416L52.0504 48.5795L52.0505 48.5796L52.2917 48.1416ZM56.6667 57.6666V58.1666H57.1667V57.6666H56.6667ZM28.5267 57.6666V58.1666H29.5863L28.9126 57.3487L28.5267 57.6666ZM3.33333 57.6666H2.83333V58.1666H3.33333V57.6666ZM7.75167 48.1966L7.51177 47.7579L7.51163 47.758L7.75167 48.1966ZM24.1667 42.6666H24.6667C24.6667 41.9151 24.9652 41.1945 25.4965 40.6631L25.143 40.3096L24.7894 39.956C24.0705 40.6749 23.6667 41.6499 23.6667 42.6666H24.1667ZM25.143 40.3096L25.4965 40.6631C26.0279 40.1318 26.7486 39.8333 27.5 39.8333V39.3333V38.8333C26.4833 38.8333 25.5083 39.2371 24.7894 39.956L25.143 40.3096ZM27.5 39.3333V39.8333H32.5V39.3333V38.8333H27.5V39.3333ZM32.5 39.3333V39.8333C33.2514 39.8333 33.9721 40.1318 34.5035 40.6631L34.857 40.3096L35.2106 39.956C34.4917 39.2371 33.5167 38.8333 32.5 38.8333V39.3333ZM34.857 40.3096L34.5035 40.6631C35.0348 41.1945 35.3333 41.9151 35.3333 42.6666H35.8333H36.3333C36.3333 41.6499 35.9295 40.6749 35.2106 39.956L34.857 40.3096ZM35.8333 42.6666H35.3333V44.9699H35.8333H36.3333V42.6666H35.8333ZM35.8333 44.9699L35.3333 44.9699C35.3333 45.4312 35.2206 45.8855 35.0051 46.2933L35.4471 46.5269L35.8892 46.7606C36.1808 46.2088 36.3333 45.5941 36.3333 44.97L35.8333 44.9699ZM35.4471 46.5269L35.0051 46.2933C34.7895 46.7012 34.4777 47.0503 34.0966 47.3102L34.3783 47.7233L34.6601 48.1363C35.1757 47.7846 35.5976 47.3124 35.8892 46.7606L35.4471 46.5269ZM34.3783 47.7233L33.888 47.8211L34.0763 48.7645L34.5667 48.6666L35.057 48.5687L34.8687 47.6254L34.3783 47.7233ZM34.5667 48.6666L34.9526 48.9845L40.6726 42.0395L40.2867 41.7216L39.9007 41.4037L34.1807 48.3487L34.5667 48.6666ZM40.2867 41.7216L40.6728 42.0393C40.8077 41.8753 40.9848 41.7513 41.1851 41.6805L41.0186 41.2091L40.8521 40.7376C40.4802 40.869 40.1512 41.0993 39.9006 41.4039L40.2867 41.7216ZM41.0186 41.2091L41.1851 41.6805C41.3853 41.6098 41.6011 41.5951 41.8091 41.638L41.91 41.1483L42.0109 40.6585C41.6246 40.5789 41.2239 40.6063 40.8521 40.7376L41.0186 41.2091ZM41.91 41.1483L41.8084 41.6378C46.0581 42.5196 50.3754 43.8502 53.6604 45.6595L53.9017 45.2216L54.1429 44.7836C50.7345 42.9063 46.3085 41.5502 42.0116 40.6587L41.91 41.1483ZM53.9017 45.2216L53.6604 45.6595C56.87 47.4279 59.5 49.8883 59.5 53.1633H60H60.5C60.5 49.2982 57.4067 46.5819 54.143 44.7837L53.9017 45.2216ZM60 53.1633H59.5V59.3333H60H60.5V53.1633H60ZM60 59.3333H59.5C59.5 59.6427 59.3771 59.9394 59.1583 60.1582L59.5118 60.5118L59.8654 60.8653C60.2717 60.459 60.5 59.9079 60.5 59.3333H60ZM59.5118 60.5118L59.1583 60.1582C58.9395 60.377 58.6428 60.4999 58.3333 60.4999V60.9999V61.4999C58.908 61.4999 59.4591 61.2716 59.8654 60.8653L59.5118 60.5118ZM58.3333 60.9999V60.4999H1.66667V60.9999V61.4999H58.3333V60.9999ZM1.66667 60.9999V60.4999C1.35725 60.4999 1.0605 60.377 0.841709 60.1582L0.488156 60.5118L0.134602 60.8653C0.540932 61.2716 1.09203 61.4999 1.66667 61.4999V60.9999ZM0.488156 60.5118L0.841709 60.1582C0.622917 59.9394 0.5 59.6427 0.5 59.3333H0H-0.5C-0.5 59.9079 -0.271727 60.459 0.134602 60.8653L0.488156 60.5118ZM0 59.3333H0.5V53.1633H0H-0.5V59.3333H0ZM0 53.1633H0.5C0.5 49.9132 3.17752 47.4688 6.39306 45.712L6.15333 45.2733L5.91361 44.8345C2.65581 46.6143 -0.5 49.3133 -0.5 53.1633H0ZM6.15333 45.2733L6.39332 45.7119C9.69323 43.9064 14.0138 42.5657 18.2124 41.6723L18.1083 41.1833L18.0043 40.6942C13.7596 41.5974 9.33344 42.9634 5.91334 44.8346L6.15333 45.2733ZM18.1083 41.1833L18.2122 41.6724C18.4211 41.628 18.6382 41.6419 18.8398 41.7124L19.005 41.2405L19.1702 40.7686C18.7958 40.6375 18.3925 40.6118 18.0045 40.6942L18.1083 41.1833ZM19.005 41.2405L18.8398 41.7124C19.0414 41.783 19.2198 41.9075 19.3555 42.0725L19.7417 41.7549L20.1278 41.4373C19.8759 41.1309 19.5446 40.8996 19.1702 40.7686L19.005 41.2405ZM19.7417 41.7549L19.3557 42.0727L25.0723 49.0161L25.4583 48.6983L25.8443 48.3804L20.1277 41.4371L19.7417 41.7549ZM25.4583 48.6983L25.9498 48.7901L26.1298 47.8268L25.6383 47.7349L25.1468 47.6431L24.9668 48.6064L25.4583 48.6983ZM25.6383 47.7349L25.9176 47.3202C25.5323 47.0607 25.2167 46.7106 24.9985 46.3005L24.5571 46.5353L24.1157 46.7701C24.4108 47.3249 24.8378 47.7987 25.3591 48.1497L25.6383 47.7349ZM24.5571 46.5353L24.9985 46.3005C24.7804 45.8904 24.6664 45.433 24.6667 44.9685L24.1667 44.9683L23.6667 44.968C23.6664 45.5964 23.8205 46.2153 24.1157 46.7701L24.5571 46.5353ZM24.1667 44.9683H24.6667V42.6666H24.1667H23.6667V44.9683H24.1667ZM30.8667 47.1599L30.3764 47.2579L31.3414 52.0862L31.8317 51.9882L32.322 51.8903L31.357 47.0619L30.8667 47.1599ZM31.8317 51.9882L31.4458 51.6703L29.6141 53.8937L30 54.2116L30.3859 54.5295L32.2176 52.3062L31.8317 51.9882ZM30 54.2116L30.386 53.8937L28.6126 51.7404L28.2267 52.0582L27.8407 52.3761L29.614 54.5294L30 54.2116ZM28.2267 52.0582L28.7183 52.1493L29.63 47.2277L29.1383 47.1366L28.6467 47.0455L27.735 51.9672L28.2267 52.0582ZM29.1383 47.1366L29.6299 47.2279C29.7158 46.7656 29.6489 46.2879 29.4394 45.867L28.9918 46.0897L28.5441 46.3125C28.6569 46.5392 28.693 46.7964 28.6467 47.0453L29.1383 47.1366ZM28.9918 46.0897L29.4394 45.867C29.2299 45.446 28.8892 45.1046 28.4686 44.8944L28.245 45.3416L28.0214 45.7888C28.2479 45.902 28.4313 46.0858 28.5441 46.3125L28.9918 46.0897ZM28.245 45.3416L28.4682 44.8942L27.7232 44.5225L27.5 44.9699L27.2768 45.4173L28.0218 45.789L28.245 45.3416ZM27.5 44.9699H28V42.6666H27.5H27V44.9699H27.5ZM27.5 42.6666V43.1666H32.5V42.6666V42.1666H27.5V42.6666ZM32.5 42.6666H32V44.9699H32.5H33V42.6666H32.5ZM32.5 44.9699L32.276 44.5229L31.531 44.8962L31.755 45.3433L31.979 45.7903L32.724 45.4169L32.5 44.9699ZM31.755 45.3433L31.5316 44.8959C31.1065 45.1082 30.7629 45.4544 30.5538 45.8811L31.0029 46.1011L31.4519 46.3211C31.5644 46.0913 31.7494 45.9049 31.9784 45.7906L31.755 45.3433ZM31.0029 46.1011L30.5538 45.8811C30.3448 46.3079 30.2818 46.7915 30.3746 47.2576L30.865 47.1599L31.3554 47.0622C31.3054 46.8113 31.3393 46.5509 31.4519 46.3211L31.0029 46.1011ZM31.4717 57.6666L31.8576 57.9844L42.5976 44.9428L42.2117 44.6249L41.8257 44.3071L31.0857 57.3487L31.4717 57.6666ZM42.2117 44.6249L42.1024 45.1128C45.8456 45.9509 49.4065 47.123 52.0504 48.5795L52.2917 48.1416L52.5329 47.7036C49.7735 46.1835 46.111 44.9856 42.3209 44.137L42.2117 44.6249ZM52.2917 48.1416L52.0505 48.5796C55.068 50.241 56.1667 51.8478 56.1667 53.1633H56.6667H57.1667C57.1667 51.2621 55.6119 49.3989 52.5328 47.7036L52.2917 48.1416ZM56.6667 53.1633H56.1667V57.6666H56.6667H57.1667V53.1633H56.6667ZM56.6667 57.6666V57.1666H31.4717V57.6666V58.1666H56.6667V57.6666ZM17.815 44.6616L17.4291 44.9795L28.1407 57.9845L28.5267 57.6666L28.9126 57.3487L18.2009 44.3437L17.815 44.6616ZM28.5267 57.6666V57.1666H3.33333V57.6666V58.1666H28.5267V57.6666ZM3.33333 57.6666H3.83333V53.1633H3.33333H2.83333V57.6666H3.33333ZM3.33333 53.1633H3.83333C3.83333 51.9044 4.93092 50.3103 7.99171 48.6352L7.75167 48.1966L7.51163 47.758C4.40241 49.4596 2.83333 51.3088 2.83333 53.1633H3.33333ZM7.75167 48.1966L7.99156 48.6353C10.657 47.1777 14.2261 45.9987 17.9301 45.1489L17.8183 44.6616L17.7065 44.1742C13.9573 45.0344 10.2897 46.2388 7.51177 47.7579L7.75167 48.1966Z" fill="#101010" mask="url(#path-4-inside-1_391_297)"/>
</svg>
