<svg width="46" height="47" viewBox="0 0 46 47" fill="none" xmlns="http://www.w3.org/2000/svg">
<g clip-path="url(#clip0_360_204)">
<path d="M22.7695 0.734375C10.1934 0.734375 0.00390625 10.9238 0.00390625 23.5C0.00390625 36.0762 10.1934 46.2656 22.7695 46.2656C35.3457 46.2656 45.5352 36.0762 45.5352 23.5C45.5352 10.9238 35.3457 0.734375 22.7695 0.734375ZM33.9504 16.3307L30.2143 33.9373C29.9389 35.1857 29.1953 35.4887 28.158 34.9012L22.4666 30.7061L19.7219 33.3498C19.4189 33.6527 19.1619 33.9098 18.5744 33.9098L18.9783 28.1174L29.5258 18.5889C29.9848 18.185 29.4248 17.9555 28.8189 18.3594L15.7838 26.566L10.1658 24.8127C8.94492 24.4271 8.91738 23.5918 10.4229 23.0043L32.3715 14.5406C33.3904 14.1734 34.2809 14.7885 33.9504 16.3307Z" fill="#E7AF3E"/>
</g>
<defs>
<clipPath id="clip0_360_204">
<rect width="45.5352" height="47" fill="white"/>
</clipPath>
</defs>
</svg>
