<svg width="45" height="45" viewBox="0 0 45 45" fill="none" xmlns="http://www.w3.org/2000/svg">
<path fill-rule="evenodd" clip-rule="evenodd" d="M22.4996 0.552002C34.621 0.552002 44.4475 10.3785 44.4475 22.4999C44.4475 34.6213 34.621 44.4478 22.4996 44.4478C18.7021 44.4478 15.1292 43.4821 12.0116 41.7835L2.33406 43.4066C2.09553 43.4464 1.85097 43.4291 1.6204 43.3562C1.38982 43.2833 1.17979 43.1568 1.0075 42.9871C0.835216 42.8174 0.705571 42.6094 0.629182 42.3799C0.552794 42.1505 0.531836 41.9062 0.568022 41.6671L2.20136 30.8667C1.10717 28.2132 0.546606 25.3701 0.551689 22.4999C0.551689 10.3785 10.3782 0.552002 22.4996 0.552002ZM14.2166 11.6791C12.7159 11.6791 11.4726 12.9449 11.7053 14.5088C12.1463 17.4407 13.4489 22.8429 17.324 26.7466C21.3746 30.8279 27.1709 32.5735 30.309 33.2615C31.9341 33.6188 33.3204 32.3326 33.3204 30.7462V27.0222C33.3205 26.8985 33.2831 26.7776 33.2131 26.6756C33.1431 26.5735 33.0439 26.4951 32.9284 26.4505L28.9268 24.9132C28.8188 24.8718 28.7013 24.8619 28.5879 24.8846L24.5515 25.6727C21.9484 24.3252 20.3722 22.8143 19.4269 20.5379L20.1864 16.4239C20.2067 16.3145 20.1969 16.2015 20.1578 16.0973L18.6572 12.0772C18.6136 11.9606 18.5356 11.8601 18.4335 11.789C18.3313 11.7178 18.21 11.6795 18.0855 11.6791H14.2166Z" fill="#E7AF3E"/>
</svg>
